<svg xmlns="http://www.w3.org/2000/svg" viewBox="0 0 1000 1000" width="1000" height="1000" role="img" aria-labelledby="t d"><title id="t">Product image coming soon</title><desc id="d">Neutral cpu placeholder; the product photo is not available yet.</desc><defs><radialGradient id="bg" cx=".5" cy=".42" r=".75"><stop offset="0" stop-color="#f4f3ee"/><stop offset="1" stop-color="#e3e2da"/></radialGradient><filter id="blur" x="-20%" y="-200%" width="140%" height="500%"><feGaussianBlur stdDeviation="14"/></filter></defs><rect width="1000" height="1000" fill="url(#bg)"/><g transform="translate(500 450) scale(0.7)">
    <defs><linearGradient id="bd" x1="0" y1="0" x2="1" y2="1"><stop offset="0" stop-color="#cdcec7"/><stop offset=".5" stop-color="#b9bbb1"/><stop offset="1" stop-color="#787a73"/></linearGradient><linearGradient id="gold" x1="0" y1="0" x2="1" y2="1"><stop offset="0" stop-color="#e8c777"/><stop offset="1" stop-color="#a77c2a"/></linearGradient></defs>
    <ellipse cx="0" cy="330" rx="300" ry="26" fill="#000" opacity=".16" filter="url(#blur)"/>
    <rect x="-300" y="-300" width="600" height="600" rx="34" fill="#1e2b1f"/>
    <rect x="-264" y="-318" width="18" height="30" fill="url(#gold)"/><rect x="-264" y="288" width="18" height="30" fill="url(#gold)"/><rect x="-318" y="-264" width="30" height="18" fill="url(#gold)"/><rect x="288" y="-264" width="30" height="18" fill="url(#gold)"/><rect x="-219" y="-318" width="18" height="30" fill="url(#gold)"/><rect x="-219" y="288" width="18" height="30" fill="url(#gold)"/><rect x="-318" y="-219" width="30" height="18" fill="url(#gold)"/><rect x="288" y="-219" width="30" height="18" fill="url(#gold)"/><rect x="-174" y="-318" width="18" height="30" fill="url(#gold)"/><rect x="-174" y="288" width="18" height="30" fill="url(#gold)"/><rect x="-318" y="-174" width="30" height="18" fill="url(#gold)"/><rect x="288" y="-174" width="30" height="18" fill="url(#gold)"/><rect x="-129" y="-318" width="18" height="30" fill="url(#gold)"/><rect x="-129" y="288" width="18" height="30" fill="url(#gold)"/><rect x="-318" y="-129" width="30" height="18" fill="url(#gold)"/><rect x="288" y="-129" width="30" height="18" fill="url(#gold)"/><rect x="-84" y="-318" width="18" height="30" fill="url(#gold)"/><rect x="-84" y="288" width="18" height="30" fill="url(#gold)"/><rect x="-318" y="-84" width="30" height="18" fill="url(#gold)"/><rect x="288" y="-84" width="30" height="18" fill="url(#gold)"/><rect x="-39" y="-318" width="18" height="30" fill="url(#gold)"/><rect x="-39" y="288" width="18" height="30" fill="url(#gold)"/><rect x="-318" y="-39" width="30" height="18" fill="url(#gold)"/><rect x="288" y="-39" width="30" height="18" fill="url(#gold)"/><rect x="6" y="-318" width="18" height="30" fill="url(#gold)"/><rect x="6" y="288" width="18" height="30" fill="url(#gold)"/><rect x="-318" y="6" width="30" height="18" fill="url(#gold)"/><rect x="288" y="6" width="30" height="18" fill="url(#gold)"/><rect x="51" y="-318" width="18" height="30" fill="url(#gold)"/><rect x="51" y="288" width="18" height="30" fill="url(#gold)"/><rect x="-318" y="51" width="30" height="18" fill="url(#gold)"/><rect x="288" y="51" width="30" height="18" fill="url(#gold)"/><rect x="96" y="-318" width="18" height="30" fill="url(#gold)"/><rect x="96" y="288" width="18" height="30" fill="url(#gold)"/><rect x="-318" y="96" width="30" height="18" fill="url(#gold)"/><rect x="288" y="96" width="30" height="18" fill="url(#gold)"/><rect x="141" y="-318" width="18" height="30" fill="url(#gold)"/><rect x="141" y="288" width="18" height="30" fill="url(#gold)"/><rect x="-318" y="141" width="30" height="18" fill="url(#gold)"/><rect x="288" y="141" width="30" height="18" fill="url(#gold)"/><rect x="186" y="-318" width="18" height="30" fill="url(#gold)"/><rect x="186" y="288" width="18" height="30" fill="url(#gold)"/><rect x="-318" y="186" width="30" height="18" fill="url(#gold)"/><rect x="288" y="186" width="30" height="18" fill="url(#gold)"/><rect x="231" y="-318" width="18" height="30" fill="url(#gold)"/><rect x="231" y="288" width="18" height="30" fill="url(#gold)"/><rect x="-318" y="231" width="30" height="18" fill="url(#gold)"/><rect x="288" y="231" width="30" height="18" fill="url(#gold)"/>
    <rect x="-220" y="-220" width="440" height="440" rx="22" fill="url(#bd)"/>
    <rect x="-200" y="-200" width="400" height="400" rx="14" fill="none" stroke="#dcddd8" stroke-opacity=".5" stroke-width="3"/>
    <text x="0" y="-20" text-anchor="middle" font-family="Arial,Helvetica,sans-serif" font-weight="800" font-size="86" fill="#fff" opacity=".9">X9</text>
    <text x="0" y="46" text-anchor="middle" font-family="Arial,Helvetica,sans-serif" font-weight="600" font-size="34" letter-spacing="8" fill="#fff" opacity=".7">DESKTOP</text>
    <polygon points="-300,-300 -240,-300 -300,-240" fill="url(#gold)"/></g><text x="500" y="900" text-anchor="middle" font-family="Arial,Helvetica,sans-serif" font-size="34" letter-spacing="5" fill="#77786f">IMAGE COMING SOON</text></svg>
